<svg width="50" height="50" viewBox="0 0 50 50" fill="none" xmlns="http://www.w3.org/2000/svg">
<g clip-path="url(#clip0_4_119)">
<path d="M11.8063 27.5583C12.3068 27.3834 12.8552 27.4059 13.3397 27.6212C13.8242 27.8365 14.2084 28.2285 14.414 28.7172C14.6196 29.2059 14.6311 29.7547 14.4462 30.2516C14.2612 30.7485 13.8938 31.1562 13.4188 31.3917L13.1938 31.4875C12.5426 31.7177 11.9588 32.1062 11.4949 32.6179C11.031 33.1296 10.7015 33.7485 10.536 34.4191C10.3706 35.0897 10.3743 35.7908 10.5469 36.4596C10.7195 37.1284 11.0556 37.7438 11.5249 38.2505C11.9943 38.7573 12.5821 39.1394 13.2357 39.3627C13.8893 39.586 14.5882 39.6434 15.2694 39.5297C15.9507 39.4161 16.5931 39.1349 17.1388 38.7115C17.6845 38.2882 18.1164 37.7358 18.3958 37.1042L18.5146 36.8062C18.5999 36.5411 18.7375 36.2957 18.9193 36.0846C19.1011 35.8736 19.3234 35.7011 19.573 35.5775C19.8226 35.4538 20.0945 35.3815 20.3725 35.3647C20.6506 35.348 20.9292 35.3871 21.1918 35.4799C21.4545 35.5727 21.6959 35.7173 21.9017 35.905C22.1075 36.0927 22.2736 36.3198 22.3901 36.5728C22.5066 36.8258 22.5712 37.0996 22.5801 37.378C22.5889 37.6565 22.5419 37.9338 22.4417 38.1937C21.9727 39.5217 21.1749 40.7091 20.1228 41.6453C19.0707 42.5814 17.7985 43.2357 16.4251 43.5471C15.0516 43.8585 13.6217 43.8168 12.2687 43.426C10.9157 43.0351 9.68379 42.3078 8.68797 41.312C7.69215 40.3162 6.96487 39.0843 6.57402 37.7313C6.18318 36.3783 6.1415 34.9484 6.4529 33.5749C6.76429 32.2015 7.41859 30.9293 8.35473 29.8772C9.29087 28.8251 10.4783 28.0273 11.8063 27.5583ZM38.1938 27.5583C39.5217 28.0273 40.7091 28.8251 41.6453 29.8772C42.5814 30.9293 43.2357 32.2015 43.5471 33.5749C43.8585 34.9484 43.8168 36.3783 43.426 37.7313C43.0351 39.0843 42.3078 40.3162 41.312 41.312C40.3162 42.3078 39.0843 43.0351 37.7313 43.426C36.3783 43.8168 34.9484 43.8585 33.5749 43.5471C32.2015 43.2357 30.9293 42.5814 29.8772 41.6453C28.8251 40.7091 28.0273 39.5217 27.5583 38.1937C27.3834 37.6932 27.4059 37.1448 27.6212 36.6603C27.8365 36.1758 28.2285 35.7916 28.7172 35.586C29.2059 35.3804 29.7547 35.3689 30.2516 35.5538C30.7485 35.7388 31.1562 36.1062 31.3917 36.5812L31.4875 36.8062C31.7177 37.4574 32.1062 38.0412 32.6179 38.5051C33.1296 38.969 33.7485 39.2985 34.4191 39.464C35.0897 39.6294 35.7909 39.6257 36.4596 39.4531C37.1284 39.2805 37.7438 38.9444 38.2505 38.4751C38.7573 38.0057 39.1394 37.4179 39.3627 36.7643C39.586 36.1107 39.6434 35.4118 39.5297 34.7306C39.4161 34.0493 39.1349 33.4069 38.7115 32.8612C38.2882 32.3155 37.7358 31.8836 37.1042 31.6042L36.8062 31.4875C36.5483 31.3964 36.3107 31.2554 36.1072 31.0725C35.9038 30.8896 35.7383 30.6684 35.6203 30.4215C35.3819 29.923 35.3514 29.3502 35.5354 28.8292C35.7194 28.3081 36.1028 27.8815 36.6014 27.6432C37.0999 27.4049 37.6727 27.3743 38.1938 27.5583ZM16.6896 13.8333L16.9042 13.9792L22.4417 18.2875C23.1251 18.8192 23.9572 19.1247 24.8223 19.1617C25.6874 19.1987 26.5425 18.9652 27.2687 18.4938L27.5583 18.2875L33.0958 13.9813C33.4789 13.6829 33.9542 13.5277 34.4395 13.5426C34.9249 13.5574 35.3898 13.7413 35.754 14.0624C36.1181 14.3836 36.3587 14.8219 36.434 15.3016C36.5094 15.7813 36.4148 16.2722 36.1667 16.6896L36.0208 16.9042L31.7125 22.4417C31.1808 23.1251 30.8753 23.9572 30.8383 24.8223C30.8013 25.6874 31.0348 26.5425 31.5063 27.2687L31.7125 27.5583L36.0187 33.0958C36.3171 33.4789 36.4723 33.9542 36.4574 34.4395C36.4426 34.9249 36.2587 35.3898 35.9376 35.7539C35.6164 36.1181 35.1781 36.3587 34.6984 36.434C34.2187 36.5094 33.7278 36.4148 33.3104 36.1667L33.0958 36.0208L27.5583 31.7125C26.8749 31.1808 26.0428 30.8753 25.1777 30.8383C24.3126 30.8013 23.4575 31.0348 22.7313 31.5062L22.4417 31.7125L16.9042 36.0187C16.5211 36.3171 16.0458 36.4723 15.5605 36.4574C15.0751 36.4426 14.6102 36.2587 14.2461 35.9375C13.8819 35.6164 13.6413 35.1781 13.566 34.6984C13.4906 34.2187 13.5852 33.7278 13.8333 33.3104L13.9792 33.0958L18.2875 27.5583C18.8192 26.8749 19.1247 26.0428 19.1617 25.1777C19.1987 24.3126 18.9652 23.4575 18.4938 22.7313L18.2875 22.4417L13.9813 16.9042C13.6958 16.5382 13.5408 16.0875 13.5407 15.6235C13.5405 15.1594 13.6954 14.7086 13.9806 14.3425C14.2658 13.9764 14.665 13.7161 15.115 13.6027C15.565 13.4893 16.04 13.5294 16.4646 13.7167L16.6896 13.8333ZM35.4167 6.25C37.3832 6.2491 39.2867 6.9437 40.7905 8.21093C42.2943 9.47817 43.3014 11.2364 43.6339 13.1746C43.9663 15.1129 43.6026 17.1062 42.607 18.8021C41.6114 20.498 40.0482 21.7872 38.1938 22.4417C37.6932 22.6166 37.1448 22.5941 36.6603 22.3788C36.1758 22.1635 35.7916 21.7715 35.586 21.2828C35.3804 20.7941 35.3689 20.2453 35.5538 19.7484C35.7388 19.2515 36.1062 18.8438 36.5813 18.6083L36.8062 18.5125C37.4574 18.2823 38.0412 17.8938 38.5051 17.3821C38.969 16.8704 39.2985 16.2515 39.464 15.5809C39.6294 14.9103 39.6257 14.2091 39.4531 13.5404C39.2805 12.8716 38.9444 12.2562 38.4751 11.7495C38.0057 11.2427 37.4179 10.8606 36.7643 10.6373C36.1107 10.414 35.4118 10.3566 34.7306 10.4703C34.0493 10.5839 33.4069 10.8651 32.8612 11.2885C32.3155 11.7118 31.8836 12.2642 31.6042 12.8958L31.4875 13.1938C31.3035 13.7148 30.9201 14.1414 30.4215 14.3797C29.923 14.6181 29.3502 14.6486 28.8292 14.4646C28.3081 14.2806 27.8815 13.8971 27.6432 13.3986C27.4049 12.9001 27.3743 12.3273 27.5583 11.8063C28.133 10.1813 29.1973 8.77446 30.6046 7.7794C32.0119 6.78435 33.6931 6.25003 35.4167 6.25ZM14.5833 6.25C16.3069 6.25003 17.9881 6.78435 19.3954 7.7794C20.8027 8.77446 21.867 10.1813 22.4417 11.8063C22.6166 12.3068 22.5941 12.8552 22.3788 13.3397C22.1635 13.8242 21.7715 14.2084 21.2828 14.414C20.7941 14.6196 20.2453 14.6311 19.7484 14.4462C19.2515 14.2612 18.8438 13.8938 18.6083 13.4188L18.5125 13.1938C18.2823 12.5426 17.8938 11.9588 17.3821 11.4949C16.8704 11.031 16.2515 10.7015 15.5809 10.536C14.9103 10.3706 14.2091 10.3743 13.5404 10.5469C12.8716 10.7195 12.2562 11.0556 11.7495 11.5249C11.2427 11.9943 10.8606 12.5821 10.6373 13.2357C10.414 13.8893 10.3566 14.5882 10.4703 15.2694C10.5839 15.9507 10.8651 16.5931 11.2885 17.1388C11.7119 17.6845 12.2642 18.1164 12.8958 18.3958L13.1938 18.5146C13.6997 18.7097 14.1097 19.0944 14.3366 19.587C14.5634 20.0795 14.5893 20.6411 14.4086 21.1525C14.228 21.6638 13.855 22.0845 13.3691 22.3253C12.8832 22.566 12.3225 22.6077 11.8063 22.4417C9.95426 21.7851 8.39378 20.4953 7.40025 18.8C6.40672 17.1048 6.04403 15.113 6.37619 13.1764C6.70836 11.2397 7.71402 9.48263 9.21567 8.21533C10.7173 6.94803 12.6184 6.25196 14.5833 6.25Z" fill="black"/>
</g>
<defs>
<clipPath id="clip0_4_119">
<rect width="50" height="50" fill="white"/>
</clipPath>
</defs>
</svg>
